<?xml version="1.0" encoding="UTF-8"?><svg xmlns="http://www.w3.org/2000/svg" viewBox="0 0 248.57 248.67"><defs><style>.cls-1{stroke:#000;stroke-width:2.87px;}.cls-2{fill:#fff;}.cls-3{fill:#f2f2f2;}.cls-4{fill:#ff2a2a;}.cls-5{fill:#333;}</style></defs><g id="svg2"><g id="layer1"><path id="path2985" class="cls-4" d="M248.57,124.34c.02,68.64-55.6,124.31-124.24,124.33C55.69,248.69.02,193.07,0,124.42v-.09C-.02,55.7,55.6.03,124.24,0c68.64-.02,124.31,55.6,124.33,124.24v.09Z"/><path id="path3099" class="cls-1" d="M125.24,1.56c-2.58,27.36-8.65,40.05-11.06,50.92-1.2,5.44-1.47,10.43.09,16.47,1.56,6.03,4.94,13.11,11.03,22.81l.85-.52c-6.06-9.66-9.38-16.65-10.9-22.53-1.52-5.89-1.25-10.66-.06-16.01,2.37-10.69,8.46-23.57,11.06-51.04l-1-.09h0Z"/><g id="g3915"><path id="path2993" class="cls-3" d="M113.88,131.11c0,22.09-17.91,40-40,40s-40-17.91-40-40h0c0-22.09,17.91-40,40-40s40,17.91,40,40Z"/><path id="path2993-7" class="cls-3" d="M215.88,131.11c0,22.09-17.91,40-40,40s-40-17.91-40-40h0c0-22.09,17.91-40,40-40s40,17.91,40,40Z"/><rect id="rect3031" class="cls-3" x="70.67" y="91.11" width="105.71" height="60"/><rect id="rect3035" class="cls-5" x="53.59" y="123.53" width="36.37" height="10.1"/><rect id="rect3035-4" class="cls-5" x="67.22" y="110.4" width="10.1" height="36.37"/><path id="path3055" class="cls-5" d="M186.5,114.46c0,3.91-3.17,7.07-7.07,7.07s-7.07-3.17-7.07-7.07,3.17-7.07,7.07-7.07,7.07,3.17,7.07,7.07h0Z"/><path id="path3055-0" class="cls-5" d="M186.61,146.51c0,3.91-3.17,7.07-7.07,7.07s-7.07-3.17-7.07-7.07,3.17-7.07,7.07-7.07,7.07,3.17,7.07,7.07h0Z"/><path id="path3055-9" class="cls-5" d="M202.51,130.59c0,3.91-3.17,7.07-7.07,7.07s-7.07-3.17-7.07-7.07,3.17-7.07,7.07-7.07,7.07,3.17,7.07,7.07h0Z"/><path id="path3055-4" class="cls-5" d="M170.56,130.58c0,3.91-3.17,7.07-7.07,7.07s-7.07-3.17-7.07-7.07,3.17-7.07,7.07-7.07,7.07,3.17,7.07,7.07h0Z"/></g><rect id="rect3930" class="cls-5" x="107.24" y="123.02" width="9.6" height="3.03"/><rect id="rect3930-8" class="cls-5" x="133.49" y="123.02" width="9.6" height="3.03"/></g></g><g id="text"><path class="cls-2" d="M220.66,69.4c-5.52,0-9.11-.7-11.29-2.19-4.72-3.24-7.11-8.04-7.11-14.28s2.31-11.91,6.87-16.53c4.57-4.64,10.07-6.99,16.33-6.99,5,0,9.19,1.63,12.47,4.85,3.28,3.23,4.95,7.37,4.95,12.29,0,3.55-.82,7.12-2.43,10.6-1.62,3.49-3.78,6.34-6.4,8.46-1.83,1.45-3.75,2.45-5.73,3-1.9.53-4.4.79-7.66.79ZM224.39,43.97c-1.45,0-2.81.78-4.15,2.38-1.45,1.74-2.16,3.58-2.16,5.63,0,1.54.25,2.71,3.34,2.71,2.04,0,2.9-.72,3.37-1.25,1.64-1.86,2.44-3.91,2.44-6.26,0-1.4-.46-2.05-.8-2.42-.34-.37-.89-.79-2.04-.79Z"/><path d="M225.47,31.9c4.34,0,7.91,1.38,10.71,4.13,2.8,2.76,4.2,6.26,4.2,10.51,0,3.21-.73,6.39-2.2,9.55-1.47,3.16-3.37,5.68-5.71,7.57-1.56,1.23-3.17,2.07-4.83,2.54-1.66.46-3.99.7-6.99.7-4.88,0-8.18-.58-9.88-1.75-4.01-2.75-6.02-6.83-6.02-12.22,0-5.69,2.05-10.62,6.15-14.78,4.1-4.16,8.95-6.24,14.55-6.24M221.43,57.19c2.28,0,4.03-.7,5.26-2.11,2.04-2.31,3.05-4.94,3.05-7.91,0-1.71-.49-3.08-1.48-4.13-.99-1.05-2.28-1.57-3.86-1.57-2.22,0-4.24,1.09-6.06,3.28-1.83,2.19-2.74,4.6-2.74,7.23,0,3.47,1.95,5.21,5.84,5.21M225.47,26.9c-6.96,0-13.06,2.6-18.12,7.73-5.04,5.11-7.59,11.27-7.59,18.29s2.83,12.66,8.19,16.34c2.62,1.8,6.66,2.63,12.71,2.63,3.49,0,6.21-.29,8.33-.88,2.29-.64,4.51-1.79,6.58-3.43l.02-.02.02-.02c2.92-2.36,5.31-5.51,7.1-9.35,1.77-3.81,2.67-7.73,2.67-11.65,0-5.62-1.92-10.36-5.69-14.08-3.76-3.7-8.54-5.57-14.22-5.57h0ZM220.59,52.14s0-.1,0-.16c0-1.46.5-2.74,1.58-4.03.82-.99,1.57-1.49,2.23-1.49.12,0,.19,0,.23.02.07.11.11.37.11.69,0,1.74-.57,3.2-1.8,4.6-.11.12-.37.42-1.51.42-.37,0-.65-.03-.84-.06h0Z"/><path class="cls-2" d="M186.3,69.4c-3.71,0-6.8-1.31-9.18-3.91-2.33-2.53-3.51-5.81-3.51-9.73,0-.85.07-1.69.21-2.53-.85.33-1.66.44-2.38.44-1.98,0-3.67-.62-5.04-1.85-1.42-1.28-2.17-2.96-2.17-4.87,0-1.05.36-2.42,1.17-4.43l5.08-12.54c2.05-5.04,5.22-6.1,7.53-6.1,3.36,0,5.74,1.84,6.52,5.05l.28,1.07c.27.02.63.03,1.11.03h10.51c7.57,0,8.38,4.64,8.38,6.63,0,2.37-.9,7.77-8.95,8.18-5.69,5.48-6.14,7.91-6.14,8.53,0,.84,0,1.23,1.63,1.23h5.66c7.41,0,8.21,4.51,8.21,6.45,0,2.63-1.03,4.81-2.98,6.3-1.77,1.35-4.16,2.04-7.11,2.04h-8.8Z"/><path d="M177.99,26.38c2.22,0,3.58,1.05,4.09,3.14l.36,1.39c.18.72.45,1.17.81,1.35.36.18,1.24.27,2.65.27h10.51c3.92,0,5.88,1.38,5.88,4.13,0,3.8-2.49,5.71-7.46,5.71l-.49.45c-4.76,4.55-7.14,8.07-7.14,10.56s1.38,3.73,4.13,3.73h5.66c3.8,0,5.71,1.32,5.71,3.95,0,1.86-.67,3.29-2,4.31-1.33,1.02-3.2,1.53-5.59,1.53h-8.8c-3,0-5.44-1.03-7.34-3.1-1.9-2.07-2.85-4.75-2.85-8.04,0-2.1.51-4.13,1.53-6.11,1.02-1.98,2.81-4.4,5.39-7.28h-4.67l-1.53,3.77c-1.38,3.35-3.17,5.03-5.39,5.03-1.35,0-2.47-.4-3.37-1.21-.9-.81-1.35-1.81-1.35-3.01,0-.69.33-1.86.99-3.5l5.08-12.53c1.23-3.02,2.96-4.54,5.21-4.54M177.99,21.38c-2.52,0-7.14.99-9.84,7.66l-5.08,12.54c-.95,2.38-1.35,3.98-1.35,5.38,0,2.63,1.04,4.96,3,6.73,1.74,1.56,3.94,2.42,6.39,2.49.08,4.39,1.48,8.1,4.17,11.01,2.84,3.08,6.65,4.71,11.02,4.71h8.8c3.51,0,6.41-.86,8.63-2.55,2.56-1.95,3.96-4.89,3.96-8.29,0-4.33-2.81-8.95-10.71-8.95h-4.15c.61-.99,1.8-2.56,4.1-4.84,7.58-.78,10.35-5.84,10.35-10.6,0-4.42-2.86-9.13-10.88-9.13h-9.7c-1.26-3.87-4.46-6.15-8.72-6.15h0Z"/><path class="cls-2" d="M147.22,69.4c-2.84,0-5.18-.71-6.96-2.11-1.93-1.52-2.95-3.67-2.95-6.23,0-1.42.33-2.97.99-4.61l.88-2.04,4.02-9.93c-4.25-1.14-4.63-4.8-4.63-6.06,0-2.62,1.03-4.81,2.97-6.31,1.77-1.38,4.17-2.07,7.12-2.07h.38l2.25-5.54c2.29-5.41,6.14-6.54,8.96-6.54,1.85,0,3.53.66,4.87,1.91,1.39,1.3,2.12,2.96,2.12,4.82,0,1.51-.45,3.25-1.39,5.33l-.1.22c5.14.89,5.76,4.59,5.76,6.3,0,2.61-1.04,4.77-3.01,6.26-1.78,1.35-4.17,2.03-7.08,2.03h-1.6l-3.98,9.78h1.31c7.41,0,8.21,4.54,8.21,6.5,0,2.6-1.03,4.76-2.98,6.25-1.77,1.35-4.16,2.04-7.11,2.04h-8.04Z"/><path d="M160.24,20.45c1.23,0,2.28.41,3.17,1.24.88.82,1.33,1.82,1.33,2.99s-.39,2.58-1.17,4.31l-1.66,3.55h1.39c3.8,0,5.71,1.33,5.71,4,0,1.83-.67,3.25-2.02,4.27-1.35,1.02-3.21,1.53-5.57,1.53h-3.28l-6.02,14.78h5.03c3.8,0,5.71,1.33,5.71,4,0,1.83-.67,3.25-2,4.27-1.33,1.02-3.2,1.53-5.59,1.53h-8.04c-2.28,0-4.08-.52-5.41-1.57-1.33-1.05-2-2.47-2-4.27,0-1.11.27-2.34.81-3.68l.85-1.98,5.3-13.07h-.67c-3.35,0-5.03-1.3-5.03-3.91,0-1.86.67-3.3,2-4.33,1.33-1.03,3.2-1.55,5.59-1.55h2.07l2.38-5.88.49-1.21c1.41-3.32,3.62-4.99,6.65-4.99M160.24,15.45c-2.93,0-8.29,1.04-11.25,8.04v.03s-.03.03-.03.03l-.49,1.21-1.14,2.81c-2.93.19-5.4,1.05-7.34,2.56-2.57,1.99-3.93,4.86-3.93,8.29,0,2.67,1.11,5.62,3.91,7.37l-3.11,7.68-.83,1.93-.03.06-.03.06c-.77,1.93-1.17,3.8-1.17,5.54,0,3.35,1.35,6.19,3.91,8.2,2.22,1.75,5.09,2.64,8.5,2.64h8.04c3.51,0,6.41-.86,8.63-2.55,2.56-1.95,3.96-4.88,3.96-8.24,0-3.89-2.25-8.02-8.36-8.85l2.01-4.93c3.43-.01,6.29-.87,8.5-2.54,2.58-1.95,4.01-4.88,4.01-8.26,0-3.06-1.39-6.26-4.95-7.89.46-1.43.68-2.75.68-3.97,0-2.57-1.01-4.86-2.91-6.64-1.81-1.69-4.09-2.58-6.58-2.58h0Z"/><path class="cls-2" d="M117.43,69.4c-5.37,0-9.58-1.41-12.52-4.19-2.98-2.82-4.49-6.87-4.49-12.06,0-6.41,2.2-12.01,6.53-16.66,4.38-4.7,9.69-7.08,15.78-7.08,4.52,0,8.25,1.24,11.09,3.68,2.95,2.54,4.44,5.9,4.44,10,0,4.9-2.13,8.75-6.17,11.14-.22.13-.45.26-.68.38h.67c7.37,0,8.16,4.54,8.16,6.5,0,2.6-1.03,4.76-2.98,6.25-1.77,1.35-4.17,2.04-7.11,2.04h-12.71Z"/><path d="M122.74,31.9c3.92,0,7.08,1.03,9.46,3.08,2.38,2.05,3.57,4.75,3.57,8.11,0,4.04-1.65,7.04-4.94,8.98-1.83,1.11-4.55,1.66-8.17,1.66h-8.98c0,2.25,1.69,3.37,5.08,3.37h13.34c3.77,0,5.66,1.33,5.66,4,0,1.83-.67,3.25-2,4.27-1.33,1.02-3.2,1.53-5.59,1.53h-12.71c-4.73,0-8.33-1.17-10.8-3.5s-3.71-5.75-3.71-10.24c0-5.78,1.95-10.77,5.86-14.96,3.91-4.19,8.56-6.29,13.95-6.29M115.82,45.56h4.94c3.2,0,4.76-.7,4.67-2.11-.09-1.59-1.12-2.38-3.1-2.38-2.76,0-4.93,1.5-6.51,4.49M122.74,26.9c-6.81,0-12.73,2.65-17.61,7.88-4.78,5.13-7.2,11.31-7.2,18.37,0,5.9,1.77,10.57,5.27,13.88,3.42,3.23,8.21,4.87,14.24,4.87h12.71c3.51,0,6.41-.86,8.63-2.55,2.56-1.95,3.96-4.88,3.96-8.24,0-3.18-1.49-6.51-5.36-8.08,2.23-2.65,3.38-6.01,3.38-9.93,0-4.79-1.83-8.9-5.31-11.9-3.3-2.85-7.58-4.29-12.72-4.29h0Z"/><path class="cls-2" d="M34.55,90.06c-6.98,0-12.75-2.24-17.14-6.67-4.39-4.42-6.61-10.24-6.61-17.3,0-8.99,3.35-17,9.96-23.8,3.55-3.62,8.03-6.56,13.32-8.76,5.28-2.2,10.61-3.31,15.83-3.31,2.87,0,5.27.7,7.16,2.08.93.68,1.67,1.48,2.2,2.38l6.43-15.85h-.92c-7.85,0-8.7-4.73-8.7-6.77,0-2.83,1.08-5.16,3.12-6.75,1.88-1.47,4.45-2.21,7.65-2.21h14.91c4.13,0,7.13.24,9.16.75,2.17.54,4.27,1.65,6.24,3.3,4.05,3.39,6.1,8.16,6.1,14.18,0,5.33-1.6,10.14-4.75,14.29-2.59,3.41-5.9,5.93-9.85,7.52l8.44,20.03c.54,1.29,1.42,2.83,2.5,2.83l1.73-.04h18.84c7.85,0,8.7,4.7,8.7,6.72,0,2.82-1.07,5.16-3.1,6.77-1.88,1.49-4.48,2.25-7.71,2.25h-20.71c-6.68,0-11.58-3.33-14.17-9.64l-10.64-25.63-3.73,9.18c-2.92,7.22-4.95,11.98-6.2,14.55-1.27,2.63-2.77,5.1-4.45,7.34-6.19,8.35-14.13,12.59-23.61,12.59ZM54.69,45.97c-1.11.34-2.49.6-4.2.78-5.62.51-10.11,1.76-13.39,3.74-2.69,1.63-4.83,3.77-6.38,6.34-1.54,2.56-2.29,5.15-2.29,7.92s.64,4.87,1.96,6.37c1.24,1.41,2.92,2.09,5.15,2.09,2.92,0,5.41-1.23,7.61-3.77,2.49-2.86,5.31-8.16,8.4-15.74l3.13-7.72ZM79.09,30.27c1.93-.34,3.04-.84,3.68-1.26,2.55-1.67,3.73-3.74,3.73-6.49s-.96-3.54-2.75-3.68l-4.66,11.43Z"/><path d="M81.77,5.58c3.89,0,6.75.22,8.56.67,1.81.45,3.56,1.38,5.23,2.79,3.47,2.91,5.21,6.99,5.21,12.26,0,4.79-1.42,9.05-4.25,12.78-2.83,3.73-6.57,6.24-11.21,7.52l9.48,22.51c1.23,2.9,2.83,4.36,4.81,4.36l1.8-.04h18.78c4.13,0,6.2,1.41,6.2,4.22,0,2.07-.72,3.67-2.16,4.81-1.44,1.14-3.49,1.71-6.15,1.71h-20.71c-5.69,0-9.64-2.7-11.86-8.09l-12.98-31.27-6.02,14.82c-2.87,7.1-4.92,11.9-6.13,14.4-1.21,2.5-2.61,4.81-4.2,6.94-5.72,7.73-12.92,11.59-21.61,11.59-6.32,0-11.44-1.98-15.36-5.93-3.92-3.95-5.88-9.13-5.88-15.54,0-8.36,3.08-15.71,9.25-22.06,3.32-3.38,7.49-6.12,12.49-8.2,5-2.08,9.96-3.12,14.87-3.12,2.34,0,4.23.53,5.68,1.59,1.45,1.06,2.18,2.45,2.18,4.16,0,1.86-.78,3.34-2.34,4.45-.9.63-2.64,1.08-5.21,1.35-5.99.54-10.8,1.9-14.42,4.09-3.05,1.86-5.47,4.25-7.23,7.19-1.77,2.94-2.65,6-2.65,9.21,0,3.38.86,6.06,2.58,8.02,1.72,1.96,4.07,2.94,7.03,2.94,3.65,0,6.82-1.54,9.5-4.63,2.68-3.08,5.62-8.56,8.83-16.44l15.54-38.32h-4.63c-4.13,0-6.2-1.42-6.2-4.27,0-2.07.72-3.66,2.16-4.78,1.44-1.12,3.47-1.68,6.11-1.68h14.91M75.21,33.16l1.3-.09c3.41-.21,5.96-.87,7.64-1.98,3.23-2.13,4.85-4.99,4.85-8.58,0-4.13-1.98-6.2-5.93-6.2h-.99l-6.87,16.85M81.77.58h-14.91c-3.77,0-6.86.92-9.19,2.74-1.86,1.45-4.08,4.15-4.08,8.72,0,3.95,2.29,8.14,8.48,9.07l-3.67,9.04c-2.3-1.63-5.15-2.45-8.48-2.45-5.55,0-11.2,1.18-16.79,3.51-5.6,2.33-10.35,5.46-14.13,9.31-7.1,7.3-10.69,15.9-10.69,25.56,0,7.75,2.47,14.16,7.34,19.07,4.88,4.92,11.24,7.41,18.91,7.41,10.32,0,18.94-4.58,25.63-13.61,1.76-2.36,3.34-4.96,4.68-7.73,1.27-2.62,3.32-7.43,6.27-14.7l1.44-3.54,8.31,20.02c2.96,7.2,8.81,11.17,16.48,11.17h20.71c3.81,0,6.92-.94,9.26-2.79,2.65-2.1,4.05-5.12,4.05-8.73,0-4.46-2.94-9.22-11.2-9.22h-18.9s-1.18.03-1.18.03c-.16-.22-.4-.61-.69-1.29l-7.49-17.79c3.37-1.74,6.25-4.17,8.6-7.27,3.49-4.6,5.26-9.92,5.26-15.8,0-6.8-2.36-12.21-7-16.1-2.25-1.89-4.69-3.17-7.24-3.8-2.23-.55-5.42-.82-9.76-.82h0ZM35.54,70.7c-1.93,0-2.77-.66-3.27-1.24-.89-1.01-1.34-2.6-1.34-4.72,0-2.3.63-4.47,1.93-6.63,1.36-2.25,3.17-4.05,5.55-5.49,2.93-1.77,7.06-2.91,12.25-3.38l-1.43,3.52c-3.71,9.12-6.38,13.22-7.97,15.04-2.26,2.6-4.35,2.91-5.73,2.91h0Z"/><path class="cls-2" d="M205.14,207.37c-6.63,0-7.15-4.38-7.15-5.72,0-2.27.91-4.17,2.63-5.48,1.46-1.12,3.38-1.72,5.7-1.78-.9-.27-1.74-.74-2.48-1.39-1.69-1.48-2.04-3.14-2.04-4.28,0-1.26.43-2.74,1.33-4.52l4.86-9.87c2.07-4.09,4.79-4.95,6.71-4.95,1.57,0,3,.55,4.14,1.59,1.2,1.1,1.84,2.5,1.84,4.06,0,.35-.05.8-.27,1.92-.08.44-.1.76-.1.94,0,1,.42,2.1,1.26,3.27l2.08,2.88c2.43,3.38,3.66,6.75,3.66,10.03,0,3.8-1.44,7.02-4.27,9.57-2.76,2.48-6.2,3.74-10.24,3.74h-7.65ZM210.93,194.38c2.59,0,2.59-.69,2.59-1.2,0-.17-.03-.46-.18-.91-1.02,1.16-2.14,1.79-3.21,2.11h.8Z"/><path d="M214.7,171.87c.95,0,1.77.31,2.45.93.68.62,1.03,1.36,1.03,2.22,0,.22-.07.7-.22,1.43-.1.54-.15,1.01-.15,1.43,0,1.54.57,3.11,1.72,4.72l2.09,2.89c2.12,2.95,3.19,5.81,3.19,8.57,0,3.08-1.15,5.65-3.44,7.71-2.29,2.06-5.15,3.09-8.57,3.09h-7.65c-3.1,0-4.65-1.07-4.65-3.22,0-1.49.55-2.66,1.65-3.5,1.1-.84,2.61-1.26,4.54-1.26h4.25c3.39,0,5.09-1.23,5.09-3.7,0-.9-.32-1.96-.95-3.19l-1.61-3.15-.7,1.68c-1.07,2.42-2.6,3.63-4.58,3.63-1,0-1.9-.35-2.69-1.04-.79-.7-1.19-1.5-1.19-2.4,0-.85.35-1.99,1.06-3.41l4.87-9.89c1.2-2.37,2.69-3.55,4.47-3.55M214.7,166.87c-2.15,0-6.16.82-8.93,6.3v.02s-.02.02-.02.02l-4.87,9.89c-1.07,2.14-1.58,3.93-1.58,5.62s.48,3.13,1.39,4.46c-.56.29-1.1.62-1.59,1-2.32,1.78-3.6,4.43-3.6,7.46,0,3.79,2.53,8.22,9.65,8.22h7.65c4.67,0,8.68-1.47,11.91-4.38,3.34-3,5.1-6.95,5.1-11.43,0-3.81-1.39-7.68-4.13-11.49l-2.09-2.9c-.5-.69-.78-1.34-.78-1.8,0-.02,0-.17.06-.5.22-1.12.31-1.77.31-2.36,0-2.25-.94-4.35-2.66-5.91-1.6-1.46-3.62-2.24-5.82-2.24h0Z"/><path class="cls-2" d="M183.32,207.37c-4.5,0-8.04-1.19-10.53-3.54-2.52-2.39-3.8-5.81-3.8-10.17,0-5.34,1.83-10.02,5.45-13.9,3.66-3.93,8.11-5.92,13.2-5.92,3.8,0,6.94,1.05,9.34,3.11,2.51,2.16,3.78,5.02,3.78,8.5,0,3.83-1.54,6.91-4.46,8.96,5.62.44,6.07,4.44,6.07,5.72,0,2.27-.9,4.16-2.61,5.47-1.53,1.17-3.57,1.76-6.08,1.76h-10.36Z"/><path d="M187.64,176.34c3.2,0,5.77.84,7.71,2.51,1.94,1.67,2.91,3.88,2.91,6.61,0,3.3-1.34,5.74-4.03,7.32-1.49.9-3.71,1.36-6.67,1.36h-7.32c0,1.83,1.38,2.75,4.14,2.75h10.88c3.08,0,4.61,1.09,4.61,3.26,0,1.49-.54,2.65-1.63,3.48-1.09.83-2.61,1.25-4.56,1.25h-10.36c-3.86,0-6.79-.95-8.81-2.86-2.01-1.9-3.02-4.69-3.02-8.35,0-4.71,1.59-8.78,4.78-12.19,3.19-3.42,6.98-5.13,11.37-5.13M182,187.47h4.03c2.61,0,3.88-.57,3.81-1.72-.07-1.29-.92-1.94-2.53-1.94-2.25,0-4.02,1.22-5.31,3.66M187.64,171.34c-5.82,0-10.87,2.26-15.03,6.72-4.06,4.36-6.12,9.61-6.12,15.6,0,5.07,1.54,9.1,4.59,11.98,2.97,2.8,7.08,4.22,12.24,4.22h10.36c3.07,0,5.62-.76,7.6-2.27,2.32-1.77,3.59-4.42,3.59-7.45,0-2.52-1.1-5.32-3.9-6.93,1.5-2.18,2.29-4.81,2.29-7.76,0-4.18-1.61-7.78-4.65-10.4-2.87-2.47-6.56-3.72-10.97-3.72h0Z"/><path class="cls-2" d="M136.77,207.88c-1.63,0-3.1-.57-4.27-1.66-1.21-1.13-1.86-2.57-1.86-4.17,0-1.03.24-2.14.72-3.39l4.56-11.25c.12-.29.2-.52.25-.7-.68.03-2.25.34-3.78,4.15l-4.29,10.52c-2.19,5.37-5.63,6.5-8.14,6.5-1.61,0-3.08-.56-4.25-1.61-1.25-1.12-1.91-2.58-1.91-4.22,0-1.04.24-2.19.72-3.41l7.7-18.96c1.8-4.41,4.76-5.33,6.93-5.33,1.92,0,3.52.62,4.67,1.76.85-.6,1.62-1.05,2.31-1.36,1.36-.61,2.99-.91,4.85-.91,3.1,0,5.72,1.06,7.71,3.11,2.68-2.06,5.66-3.11,8.88-3.11,2.95,0,5.48.89,7.51,2.64,2.11,1.82,3.23,4.2,3.23,6.89,0,1.57-.33,3.18-.99,4.79l-2.52,6.22h.65c6.6,0,7.11,4.41,7.11,5.76,0,2.27-.9,4.16-2.61,5.47-1.53,1.17-3.56,1.76-6.04,1.76h-7.43c-2.22,0-4.08-.63-5.54-1.88-1.55-1.33-2.38-3.15-2.38-5.27,0-1.29.38-2.86,1.17-4.82l3.45-8.4c.05-.12.08-.22.09-.28-.57.04-1.21.38-1.91,1.02-.93.86-1.71,2.05-2.3,3.55l-4.11,10.13c-2.2,5.35-5.66,6.47-8.18,6.47Z"/><path d="M157.57,176.34c2.34,0,4.3.68,5.88,2.03,1.57,1.35,2.36,3.02,2.36,5,0,1.25-.27,2.53-.8,3.84l-3.92,9.67h4.36c3.08,0,4.61,1.09,4.61,3.26,0,1.49-.54,2.65-1.63,3.48-1.09.83-2.59,1.25-4.52,1.25h-7.43c-1.61,0-2.92-.43-3.92-1.28-1-.85-1.5-1.98-1.5-3.37,0-.95.33-2.25.99-3.88l3.44-8.39c.2-.49.29-.94.29-1.35,0-1.59-.81-2.38-2.42-2.38-1.24,0-2.48.56-3.7,1.68-1.22,1.12-2.2,2.61-2.93,4.47l-4.1,10.11c-1.34,3.27-3.3,4.91-5.86,4.91-1,0-1.86-.33-2.56-.99-.71-.66-1.06-1.44-1.06-2.34,0-.71.18-1.54.55-2.49l.4-.99,4.14-10.22c.37-.9.55-1.61.55-2.12s-.24-1.01-.73-1.41c-.49-.4-1.06-.6-1.72-.6-2.64,0-4.72,1.9-6.26,5.71l-4.28,10.51c-1.34,3.3-3.28,4.94-5.82,4.94-1,0-1.86-.32-2.58-.97-.72-.65-1.08-1.43-1.08-2.36,0-.73.18-1.56.55-2.49l.4-.99,7.29-17.94c1.02-2.51,2.56-3.77,4.61-3.77s3.44,1,3.96,3c1.66-1.42,3.01-2.36,4.04-2.82,1.04-.46,2.31-.7,3.83-.7,3.27,0,5.72,1.43,7.36,4.28,2.73-2.86,5.81-4.28,9.23-4.28M157.57,171.34c-3.13,0-6.04.82-8.72,2.46-2.21-1.61-4.89-2.46-7.87-2.46-2.21,0-4.18.38-5.86,1.13-.38.17-.77.37-1.17.6-1.36-.79-2.98-1.22-4.79-1.22-1.94,0-6.71.67-9.24,6.88l-7.29,17.95-.4.98v.02s-.02.03-.02.03c-.6,1.51-.9,2.97-.9,4.33,0,2.34.97,4.5,2.74,6.08,1.64,1.47,3.69,2.25,5.92,2.25s6.03-.73,8.88-5.04c.45,1,1.11,1.93,1.96,2.71,1.63,1.52,3.7,2.33,5.97,2.33,2.51,0,6.98-.91,9.89-6.7.54,1.42,1.43,2.68,2.65,3.72,1.9,1.62,4.37,2.48,7.16,2.48h7.43c3.04,0,5.59-.76,7.56-2.27,2.32-1.77,3.59-4.41,3.59-7.45,0-3.23-1.81-6.91-6.67-7.97l1.25-3.08c.78-1.9,1.17-3.83,1.17-5.72,0-3.44-1.42-6.48-4.1-8.79-2.5-2.15-5.57-3.24-9.14-3.24h0Z"/><path class="cls-2" d="M104.76,207.37c-1.88,0-3.48-.52-4.71-1.51-1.62,1-3.25,1.51-4.88,1.51h-4.17c-3.44,0-6.26-1.26-8.4-3.75-2.04-2.37-3.08-5.45-3.08-9.16,0-5.29,1.84-10.08,5.47-14.22,3.71-4.25,8.04-6.4,12.85-6.4,3.12,0,5.31.93,6.84,2.12,1.38-1.06,3-1.6,4.8-1.6,1.71,0,3.23.59,4.41,1.71,1.22,1.16,1.86,2.66,1.86,4.34,0,1.02-.25,2.13-.77,3.4l-4.28,10.58h.32c6.6,0,7.11,4.38,7.11,5.72,0,2.27-.91,4.16-2.63,5.48-1.54,1.18-3.58,1.78-6.06,1.78h-4.69ZM93.37,194.54s.13.02.34.02h.92c1.31,0,1.51-.49,1.67-.89l2.56-6.34c.18-.44.26-.73.3-.91-.14-.09-.36-.19-.77-.19-.98,0-2.08.74-3.26,2.19-1.32,1.63-1.97,3.22-1.97,4.87,0,.86.16,1.18.2,1.25h0Z"/><path d="M97.84,176.34c3.12,0,5.41,1.09,6.85,3.26,1.22-1.83,2.82-2.75,4.8-2.75,1.07,0,1.97.34,2.69,1.03.72.68,1.08,1.53,1.08,2.53,0,.68-.2,1.5-.59,2.45l-.4.99-5.27,13.04h4.03c3.08,0,4.61,1.08,4.61,3.22,0,1.49-.55,2.66-1.65,3.5-1.1.84-2.61,1.26-4.54,1.26h-4.69c-2.1,0-3.53-.82-4.28-2.45-1.83,1.64-3.6,2.45-5.31,2.45h-4.17c-2.69,0-4.85-.96-6.5-2.88-1.65-1.92-2.47-4.42-2.47-7.53,0-4.69,1.62-8.88,4.85-12.58,3.23-3.7,6.89-5.55,10.97-5.55M93.7,197.07h.92c2,0,3.33-.82,3.99-2.45l2.56-6.33c.34-.83.51-1.53.51-2.09,0-.66-.32-1.23-.97-1.72-.65-.49-1.42-.73-2.33-.73-1.78,0-3.52,1.04-5.2,3.11-1.68,2.08-2.53,4.22-2.53,6.45,0,2.51,1.01,3.77,3.04,3.77M97.84,171.34c-5.56,0-10.52,2.44-14.73,7.26-4.04,4.62-6.09,9.96-6.09,15.87,0,4.32,1.24,7.95,3.68,10.79,2.59,3.02,6.15,4.61,10.29,4.61h4.17c1.62,0,3.21-.37,4.78-1.11,1.4.72,3.02,1.11,4.81,1.11h4.69c3.05,0,5.6-.77,7.58-2.3,2.32-1.78,3.6-4.43,3.6-7.46s-1.73-6.73-6.37-7.86l2.64-6.52.4-.98c.64-1.57.96-2.99.96-4.34,0-2.39-.91-4.51-2.64-6.15-1.66-1.57-3.78-2.4-6.14-2.4-1.71,0-3.31.39-4.76,1.13-1.75-.97-4-1.65-6.89-1.65h0Z"/><path class="cls-2" d="M41.01,234.47c-5.2,0-9.62-1.77-13.13-5.25-3.52-3.49-5.3-7.89-5.3-13.07,0-8.06,3.88-14.34,11.52-18.66,3.08-1.71,6.93-2.85,11.49-3.41-.93-.64-1.79-1.41-2.58-2.3-2.22-2.52-3.54-5.68-3.94-9.43h-3.63c-4.13,0-6.6-2.24-6.6-5.98,0-2.18.86-4.12,2.48-5.6,1.58-1.44,3.53-2.17,5.8-2.17h4.75c2.72-4.99,6.11-9,10.12-11.96,4.49-3.31,9.32-4.99,14.36-4.99,4.37,0,8.02,1.33,10.84,3.97,2.87,2.68,4.33,6.15,4.33,10.32,0,5.8-2.61,10.31-7.76,13.42-.46.28-.96.54-1.48.78.18.13.35.28.52.43,1.39,1.28,2.13,2.99,2.13,4.96,0,1.13-.38,2.61-1.21,4.64l-1.39,3.45h1.71c7.04,0,7.59,4.66,7.59,6.09,0,2.39-.96,4.38-2.77,5.77-1.64,1.25-3.83,1.89-6.5,1.89h-5.64l-2.08,5.17c-3.11,7.85-6.34,13.3-9.86,16.64-3.69,3.51-8.32,5.28-13.77,5.28ZM51.06,207.47c-3.04.18-5.46.58-7.23,1.22-2.12.75-3.78,1.82-4.95,3.18-1.07,1.24-1.59,2.54-1.59,3.99,0,1.27.38,2.25,1.19,3.11.78.82,1.68,1.2,2.82,1.2,1.5,0,2.86-.7,4.17-2.15,1.59-1.75,3.23-4.73,4.9-8.85l.69-1.7ZM54.22,182.36c.44.26,1.14.42,2.28.42.72,0,1.47-.14,2.25-.42h-4.53ZM60.78,168.6c3,0,6.58-.42,6.58-2.44,0-.17-.02-.29-.27-.5-.12-.1-.5-.41-1.44-.41-1.35,0-2.9.6-4.59,1.79-.66.46-1.3.98-1.93,1.56h1.66Z"/><path d="M66.35,154.15c3.74,0,6.78,1.1,9.14,3.3,2.36,2.2,3.53,5.03,3.53,8.5,0,4.88-2.19,8.64-6.56,11.28-2.91,1.76-7.28,2.64-13.11,2.64h-8.35v.73c0,3.12,1.83,4.69,5.49,4.69,1.64,0,3.31-.49,5.02-1.46l1.94-1.14c1.68-.98,3.13-1.46,4.32-1.46,1.34,0,2.45.4,3.33,1.21.88.81,1.32,1.84,1.32,3.11,0,.78-.34,2.01-1.03,3.7l-2.78,6.88h5.42c3.39,0,5.09,1.2,5.09,3.59,0,1.61-.6,2.87-1.79,3.79-1.2.92-2.86,1.37-4.98,1.37h-7.32l-2.71,6.74c-2.95,7.45-6.04,12.7-9.27,15.77-3.22,3.06-7.24,4.6-12.05,4.6-4.54,0-8.33-1.51-11.37-4.52-3.04-3.02-4.56-6.78-4.56-11.3,0-7.13,3.42-12.62,10.25-16.48,4.17-2.32,9.91-3.48,17.21-3.48l5.82-.07,1.25-3.11c-1.86.68-3.75,1.03-5.68,1.03-3.74,0-6.75-1.3-9.05-3.9-2.29-2.6-3.44-6.02-3.44-10.27h-6.01c-2.73,0-4.1-1.16-4.1-3.48,0-1.49.56-2.74,1.67-3.75,1.11-1.01,2.48-1.52,4.12-1.52h6.26c2.66-5.3,6.02-9.45,10.09-12.45,4.07-3,8.36-4.5,12.87-4.5M53.68,171.1h7.1c6.05,0,9.08-1.65,9.08-4.94,0-.98-.4-1.79-1.19-2.44-.79-.65-1.8-.97-3.02-.97-1.88,0-3.89.75-6.02,2.23-2.14,1.49-4.12,3.53-5.95,6.12M54.81,204.87c-5.15,0-9.09.49-11.83,1.46-2.54.9-4.54,2.2-6.01,3.9-1.46,1.7-2.2,3.57-2.2,5.62,0,1.9.63,3.52,1.89,4.83,1.26,1.32,2.8,1.98,4.63,1.98,2.22,0,4.23-.99,6.02-2.97,1.79-1.98,3.58-5.18,5.37-9.59l2.12-5.24M66.35,149.15c-5.59,0-10.92,1.84-15.84,5.48-3.94,2.91-7.33,6.76-10.09,11.47h-3.29c-2.87,0-5.46.98-7.49,2.83-2.16,1.97-3.3,4.54-3.3,7.45,0,5.15,3.57,8.48,9.1,8.48h1.49c.6,2.88,1.73,5.42,3.41,7.61-2.78.67-5.25,1.61-7.44,2.83-8.4,4.74-12.83,11.95-12.83,20.85,0,5.88,2.03,10.87,6.04,14.85,4,3.96,9.01,5.97,14.89,5.97s11.32-2.01,15.49-5.97c3.79-3.6,7.21-9.34,10.47-17.55l1.44-3.58h3.95c3.24,0,5.93-.81,8.02-2.4,2.42-1.86,3.76-4.61,3.76-7.76,0-3.6-2.18-7.74-8.14-8.47l.05-.13c.96-2.37,1.39-4.09,1.39-5.57,0-1.75-.43-3.36-1.26-4.75,5.14-3.53,7.85-8.64,7.85-14.84,0-4.82-1.77-9.03-5.12-12.15-3.3-3.08-7.52-4.64-12.55-4.64h0ZM41.3,217.67c-.46,0-.7-.1-1.01-.43-.31-.33-.51-.67-.51-1.38,0-.57.11-1.35.98-2.35.89-1.03,2.2-1.85,3.9-2.46.58-.21,1.38-.43,2.46-.62-1.5,3.33-2.71,5.04-3.5,5.92-1.2,1.33-1.99,1.33-2.32,1.33h0Z"/></g></svg>